
<svg xmlns="http://www.w3.org/2000/svg" width="100" height="100" viewBox="0 0 100 100" fill="none">
  <circle cx="50" cy="50" r="50" fill="#D946EF" />
  <path d="M50 25C53.866 25 57 21.866 57 18C57 14.134 53.866 11 50 11C46.134 11 43 14.134 43 18C43 21.866 46.134 25 50 25Z" fill="#00F5FF" />
  <path d="M40 35C40 35 35 45 35 55C35 65 40 75 50 75C60 75 65 65 65 55C65 45 60 35 60 35" stroke="#00F5FF" stroke-width="3"/>
  <path d="M40 35C40 35 45 45 50 45C55 45 60 35 60 35" stroke="#00F5FF" stroke-width="3"/>
  <circle cx="50" cy="60" r="5" fill="#00F5FF"/>
</svg>
