
<svg xmlns="http://www.w3.org/2000/svg" width="100" height="100" viewBox="0 0 100 100" fill="none">
  <circle cx="50" cy="50" r="50" fill="#1E40AF" />
  <path d="M50 30C53.866 30 57 26.866 57 23C57 19.134 53.866 16 50 16C46.134 16 43 19.134 43 23C43 26.866 46.134 30 50 30Z" fill="#00F5FF" />
  <path d="M62 40H54V70C54 72.2 56.8 75 59 75H62V40Z" fill="#00F5FF" />
  <path d="M46 40H38V75H41C43.2 75 46 72.2 46 70V40Z" fill="#00F5FF" />
  <path d="M54 38C54 41.3137 52.2091 44 50 44C47.7909 44 46 41.3137 46 38V35H54V38Z" fill="#00F5FF" />
</svg>
