
<svg xmlns="http://www.w3.org/2000/svg" width="100" height="100" viewBox="0 0 100 100" fill="none">
  <circle cx="50" cy="50" r="50" fill="#0D9488" />
  <path d="M50 25C53.866 25 57 21.866 57 18C57 14.134 53.866 11 50 11C46.134 11 43 14.134 43 18C43 21.866 46.134 25 50 25Z" fill="#00F5FF" />
  <path d="M30 45C35 40 45 40 50 45C55 50 65 50 70 45" stroke="#00F5FF" stroke-width="3"/>
  <path d="M30 55C35 50 45 50 50 55C55 60 65 60 70 55" stroke="#00F5FF" stroke-width="3"/>
  <path d="M30 65C35 60 45 60 50 65C55 70 65 70 70 65" stroke="#00F5FF" stroke-width="3"/>
</svg>
