
<svg xmlns="http://www.w3.org/2000/svg" width="100" height="100" viewBox="0 0 100 100" fill="none">
  <circle cx="50" cy="50" r="50" fill="#F97316" />
  <path d="M50 25C53.866 25 57 21.866 57 18C57 14.134 53.866 11 50 11C46.134 11 43 14.134 43 18C43 21.866 46.134 25 50 25Z" fill="#00F5FF" />
  <circle cx="50" cy="50" r="20" fill="#00F5FF"/>
  <path d="M50 30V40" stroke="#F97316" stroke-width="4"/>
  <path d="M50 60V70" stroke="#F97316" stroke-width="4"/>
  <path d="M30 50L40 50" stroke="#F97316" stroke-width="4"/>
  <path d="M60 50L70 50" stroke="#F97316" stroke-width="4"/>
  <path d="M35.5 35.5L42.5 42.5" stroke="#F97316" stroke-width="4"/>
  <path d="M57.5 57.5L64.5 64.5" stroke="#F97316" stroke-width="4"/>
  <path d="M35.5 64.5L42.5 57.5" stroke="#F97316" stroke-width="4"/>
  <path d="M57.5 42.5L64.5 35.5" stroke="#F97316" stroke-width="4"/>
</svg>
