
<svg xmlns="http://www.w3.org/2000/svg" width="100" height="100" viewBox="0 0 100 100" fill="none">
  <circle cx="50" cy="50" r="50" fill="#8B5CF6" />
  <path d="M50 25C53.866 25 57 21.866 57 18C57 14.134 53.866 11 50 11C46.134 11 43 14.134 43 18C43 21.866 46.134 25 50 25Z" fill="#00F5FF" />
  <path d="M50 30C40 35 35 45 35 55C35 65 40 72 50 77C60 72 65 65 65 55C65 45 60 35 50 30Z" fill="#00F5FF" />
  <path d="M50 85C52.7614 85 55 82.7614 55 80C55 77.2386 52.7614 75 50 75C47.2386 75 45 77.2386 45 80C45 82.7614 47.2386 85 50 85Z" fill="#00F5FF" />
</svg>
