
<svg xmlns="http://www.w3.org/2000/svg" width="100" height="100" viewBox="0 0 100 100" fill="none">
  <circle cx="50" cy="50" r="50" fill="#C026D3" />
  <path d="M50 25C53.866 25 57 21.866 57 18C57 14.134 53.866 11 50 11C46.134 11 43 14.134 43 18C43 21.866 46.134 25 50 25Z" fill="#00F5FF" />
  <path d="M40 40V60" stroke="#00F5FF" stroke-width="8" stroke-linecap="round"/>
  <path d="M60 40V60" stroke="#00F5FF" stroke-width="8" stroke-linecap="round"/>
  <path d="M30 70C30 65 40 65 40 65H60C60 65 70 65 70 70C70 75 65 80 50 80C35 80 30 75 30 70Z" fill="#00F5FF"/>
</svg>
